<?xml version="1.0" standalone="no"?><!DOCTYPE svg PUBLIC "-//W3C//DTD SVG 1.1//EN" "http://www.w3.org/Graphics/SVG/1.1/DTD/svg11.dtd"><svg t="1587649855592" class="icon" viewBox="0 0 1024 1024" version="1.1" xmlns="http://www.w3.org/2000/svg" p-id="3743" xmlns:xlink="http://www.w3.org/1999/xlink" width="200" height="200"><defs><style type="text/css"></style></defs><path d="M220.3 897.6c-5.7 0-11.4-2.1-15.9-6.3-90-85.2-139.5-200.3-139.5-324.2 0-246.2 200.3-446.4 446.4-446.4S957.7 321 957.7 567.1c0 123.9-49.5 239-139.5 324.2-9.3 8.8-23.9 8.4-32.7-0.9-8.8-9.3-8.4-23.9 0.9-32.7 80.6-76.4 125-179.6 125-290.6C911.5 346.5 732 167 511.3 167S111.2 346.5 111.2 567.1c0 111 44.4 214.2 125 290.6 9.3 8.8 9.7 23.4 0.9 32.7-4.5 4.8-10.6 7.2-16.8 7.2z" fill="#7D7D7D" p-id="3744"></path><path d="M511.3 874.5c-43.7 0-79.4-36-79.4-80.1l68.2-300.8c2.3-12.5 20-12.5 22.3 0l68.2 300.8c0.1 44-35.6 80.1-79.3 80.1z" fill="#CBCBCB" p-id="3745"></path><path d="M511.3 897.6c-56.5 0-102.5-46.3-102.5-103.2v-2.6l68.7-302.9c3.3-16.4 17.1-27.8 33.8-27.8 16.7 0 30.5 11.4 33.8 27.8l68.7 302.9v2.6c0 56.9-45.9 103.2-102.5 103.2z m-56.1-100.8c1.2 30.3 26 54.5 56.2 54.5 30.2 0 54.9-24.3 56.2-54.5l-56.2-247.7-56.2 247.7z" fill="#7D7D7D" p-id="3746"></path></svg>