<?xml version="1.0" standalone="no"?><!DOCTYPE svg PUBLIC "-//W3C//DTD SVG 1.1//EN" "http://www.w3.org/Graphics/SVG/1.1/DTD/svg11.dtd"><svg t="1587723701365" class="icon" viewBox="0 0 1024 1024" version="1.1" xmlns="http://www.w3.org/2000/svg" p-id="3817" xmlns:xlink="http://www.w3.org/1999/xlink" width="200" height="200"><defs><style type="text/css"></style></defs><path d="M261.29408 278.20032C123.2384 415.31392 10.24 529.01888 10.24 530.67776c0 3.30752 21.51424 25.05728 24.82176 25.05728 1.42336 0 109.21984-107.08992 239.94368-237.824L512.58368 80.08704 749.4656 318.62784l236.87168 238.2848 13.71136-13.71136L1013.76 529.72544 763.17696 279.1424 512.59392 28.55936 261.29408 278.20032z" fill="" p-id="3818"></path><path d="M321.57696 351.95904l-188.416 188.416V995.45088H397.9264v-302.592h226.93888v302.592H889.6512V540.3648L700.99968 351.72352c-103.54688-103.54688-188.88704-188.416-189.5936-188.416-0.70656 0-86.04672 84.86912-189.82912 188.65152z m360.50944 35.2256l169.73824 169.728v400.70144H662.71232v-302.592H360.11008v302.592H170.99776V556.91264l169.50272-169.50272c93.37856-93.37856 170.20928-169.73824 170.91584-169.73824 0.69632 0.01024 77.52704 76.36992 170.67008 169.51296z" fill="" p-id="3819"></path></svg>