<?xml version="1.0" standalone="no"?><!DOCTYPE svg PUBLIC "-//W3C//DTD SVG 1.1//EN" "http://www.w3.org/Graphics/SVG/1.1/DTD/svg11.dtd"><svg t="1587737374340" class="icon" viewBox="0 0 1024 1024" version="1.1" xmlns="http://www.w3.org/2000/svg" p-id="8515" xmlns:xlink="http://www.w3.org/1999/xlink" width="200" height="200"><defs><style type="text/css"></style></defs><path d="M516.266667 906.467556c-217.827556 0-394.410667-176.583111-394.410667-394.467556s176.583111-394.467556 394.410667-394.467556S910.734222 294.172444 910.734222 512 734.094222 906.467556 516.266667 906.467556zM516.266667 56.888889c-251.335111 0-455.111111 203.776-455.111111 455.111111s203.776 455.111111 455.111111 455.111111c251.278222 0 455.111111-203.776 455.111111-455.111111S767.544889 56.888889 516.266667 56.888889zM698.311111 451.356444c-33.507556 0-60.643556 27.192889-60.643556 60.643556s27.192889 60.643556 60.643556 60.643556c33.450667 0 60.700444-27.192889 60.700444-60.643556S731.761778 451.356444 698.311111 451.356444zM334.222222 451.356444C300.714667 451.356444 273.578667 478.492444 273.578667 512s27.192889 60.643556 60.643556 60.643556c33.450667 0 60.700444-27.192889 60.700444-60.643556S367.672889 451.356444 334.222222 451.356444zM516.266667 451.356444C482.759111 451.356444 455.623111 478.492444 455.623111 512s27.192889 60.643556 60.643556 60.643556c33.450667 0 60.700444-27.192889 60.700444-60.643556S549.717333 451.356444 516.266667 451.356444z" p-id="8516"></path></svg>