<?xml version="1.0" standalone="no"?><!DOCTYPE svg PUBLIC "-//W3C//DTD SVG 1.1//EN" "http://www.w3.org/Graphics/SVG/1.1/DTD/svg11.dtd"><svg t="1587723523926" class="icon" viewBox="0 0 1024 1024" version="1.1" xmlns="http://www.w3.org/2000/svg" p-id="1895" xmlns:xlink="http://www.w3.org/1999/xlink" width="200" height="200"><defs><style type="text/css"></style></defs><path d="M243.998665 556.710294l89.289606 0 0 89.289606-89.289606 0L243.998665 556.710294zM243.998665 377.999077l89.289606 0 0-89.289606-89.289606 0L243.998665 377.999077zM243.998665 512.045025l89.289606 0 0-89.399099-89.289606 0L243.998665 512.045025zM243.998665 780.043802l89.289606 0 0-89.397053-89.289606 0L243.998665 780.043802zM958.70846 244.044202l0 535.9996c0 98.625228-79.997985 178.600701-178.753173 178.600701l-535.956621 0c-98.623181 0-178.709171-79.975473-178.709171-178.600701L65.289494 244.044202c0-98.711186 80.08599-178.688705 178.709171-178.688705l535.956621 0C878.710474 65.355497 958.70846 145.333016 958.70846 244.044202zM869.286848 288.710494c0-73.999364-59.932997-134.065392-133.954875-134.065392L288.623002 154.645103c-73.979922 0-133.912919 60.065004-133.912919 134.065392L154.710083 735.289506c0 74.087369 59.932997 134.042879 133.912919 134.042879l446.708971 0c74.021877 0 133.954875-59.95551 133.954875-134.042879L869.286848 288.710494zM422.709883 780.043802l357.245404 0 0-89.397053L422.709883 690.64675 422.709883 780.043802zM422.709883 377.999077l357.245404 0 0-89.289606L422.709883 288.709471 422.709883 377.999077zM422.709883 512.045025l357.245404 0 0-89.399099L422.709883 422.645926 422.709883 512.045025zM422.709883 645.9999l357.245404 0 0-89.289606L422.709883 556.710294 422.709883 645.9999z" p-id="1896"></path></svg>